<?xml version="1.0" encoding="utf-8"?>
<!-- Generator: Adobe Illustrator 25.2.3, SVG Export Plug-In . SVG Version: 6.00 Build 0)  -->
<svg version="1.1" id="Calque_5" xmlns="http://www.w3.org/2000/svg" xmlns:xlink="http://www.w3.org/1999/xlink" x="0px" y="0px"
	 viewBox="0 0 1889.8 1051" style="enable-background:new 0 0 1889.8 1051;" xml:space="preserve">
<style type="text/css">
	.st0{clip-path:url(#SVGID_2_);}
	.st1{opacity:0.66;}
	.st2{fill:#16003A;}
	.st3{fill:#FFBA39;}
	.st4{fill:#991039;}
	.st5{fill:#16003A;stroke:#000000;}
	.st6{fill:#FFBA39;stroke:#000000;}
	.st7{fill:#991039;stroke:#000000;}
	.st8{fill:url(#SVGID_3_);stroke:#000000;}
	.st9{fill:url(#SVGID_4_);stroke:#000000;}
	.st10{fill:url(#SVGID_5_);stroke:#000000;}
	.st11{fill:#FFFFFF;stroke:#000000;}
	.st12{fill-rule:evenodd;clip-rule:evenodd;fill:#EA2D2E;}
	.st13{fill:url(#SVGID_6_);stroke:#000000;}
	.st14{fill:url(#SVGID_7_);stroke:#000000;}
	.st15{fill:url(#SVGID_8_);stroke:#000000;}
</style>
<defs>
	<circle id="SVGID_1_" cx="770.7" cy="607.6" r="303.6"/>
</defs>
<clipPath id="SVGID_2_">
	<use xlink:href="#SVGID_1_"  style="overflow:visible;"/>
</clipPath>
<g id="Calque_2" class="st0">
	<g class="st1">
		<path class="st2" d="M911.2-71.7l348.6,1146.3L638.3,747.2L911.2-71.7L911.2-71.7z"/>
		<path class="st3" d="M697.8,40.8l348.6,1031.1L424.9,777.3L697.8,40.8L697.8,40.8z"/>
		<path class="st4" d="M485.4,40.8L834,1071.9L212.6,777.3L485.4,40.8L485.4,40.8z"/>
	</g>
</g>
<g id="Calque_1" class="st0">
	<path class="st5" d="M821.2,607.6l115,70l-90,50l-115-70L821.2,607.6L821.2,607.6z"/>
	<path class="st6" d="M721.2,607.6l115,70l-90,50l-115-70L721.2,607.6L721.2,607.6z"/>
	<path class="st7" d="M621.2,607.6l115,70l-90,50l-115-70L621.2,607.6L621.2,607.6z"/>
	
		<linearGradient id="SVGID_3_" gradientUnits="userSpaceOnUse" x1="885.68" y1="557.588" x2="936.68" y2="557.588" gradientTransform="matrix(1 0 0 -1 0 1160.1101)">
		<stop  offset="0" style="stop-color:#0074BD"/>
		<stop  offset="1" style="stop-color:#0074BD;stop-opacity:0"/>
	</linearGradient>
	<path class="st8" d="M936,677.4l-49.8-29.8v-120l50,30L936,677.4L936,677.4z"/>
	
		<linearGradient id="SVGID_4_" gradientUnits="userSpaceOnUse" x1="-218.5" y1="931.89" x2="-132.5" y2="931.89" gradientTransform="matrix(1 0 0 -1 1104.2 1464.5802)">
		<stop  offset="0" style="stop-color:#808080"/>
		<stop  offset="1" style="stop-color:#808080;stop-opacity:0"/>
	</linearGradient>
	<path class="st9" d="M936.2,557.7l35-20.1l-50-30l-35,20L936.2,557.7z"/>
	
		<linearGradient id="SVGID_5_" gradientUnits="userSpaceOnUse" x1="530.68" y1="442.47" x2="646.68" y2="442.47" gradientTransform="matrix(1 0 0 -1 0 1160.1101)">
		<stop  offset="0" style="stop-color:#0074BD"/>
		<stop  offset="1" style="stop-color:#0074BD;stop-opacity:0"/>
	</linearGradient>
	<path class="st10" d="M531.2,657.6l115,70v50l-115-70V657.6z"/>
	<path class="st11" d="M646.2,777.6v-50l90-50l10,50l90-50l10,50l90-50v-120l35-20v240H646.2z"/>
	<path class="st12" d="M940.4,479.7c10,11.6-2.6,22-2.6,22s25.5-13.2,13.8-29.6c-10.9-15.4-19.3-23,26.1-49.3
		C977.6,422.6,906.4,440.4,940.4,479.7L940.4,479.7z"/>
	<path class="st12" d="M951.5,380.1c0,0,21.6,21.6-20.5,54.9c-33.8,26.7-7.7,41.9,0,59.3c-19.7-17.8-34.2-33.5-24.5-48.1
		C920.8,424.9,960.3,414.5,951.5,380.1z"/>
	
		<linearGradient id="SVGID_6_" gradientUnits="userSpaceOnUse" x1="-408.5" y1="726.9399" x2="-387.5" y2="726.9399" gradientTransform="matrix(1 0 0 -1 1104.2 1464.5802)">
		<stop  offset="0" style="stop-color:#808080"/>
		<stop  offset="1" style="stop-color:#808080;stop-opacity:0"/>
	</linearGradient>
	<path class="st13" d="M701.2,727.6h10c2.8,0,5,2.2,5,5v10c0,2.8-2.2,5-5,5h-10c-2.8,0-5-2.2-5-5v-10
		C696.2,729.9,698.4,727.6,701.2,727.6z"/>
	
		<linearGradient id="SVGID_7_" gradientUnits="userSpaceOnUse" x1="-179.5" y1="697.6899" x2="-158.5" y2="697.6899" gradientTransform="matrix(1 0 0 -1 1075.2 1435.3302)">
		<stop  offset="0" style="stop-color:#808080"/>
		<stop  offset="1" style="stop-color:#808080;stop-opacity:0"/>
	</linearGradient>
	<path class="st14" d="M901.2,727.6h10c2.8,0,5,2.2,5,5v10c0,2.8-2.2,5-5,5h-10c-2.8,0-5-2.2-5-5v-10
		C896.2,729.9,898.4,727.6,901.2,727.6z"/>
	
		<linearGradient id="SVGID_8_" gradientUnits="userSpaceOnUse" x1="-279.5" y1="697.6899" x2="-258.5" y2="697.6899" gradientTransform="matrix(1 0 0 -1 1075.2 1435.3302)">
		<stop  offset="0" style="stop-color:#808080"/>
		<stop  offset="1" style="stop-color:#808080;stop-opacity:0"/>
	</linearGradient>
	<path class="st15" d="M801.2,727.6h10c2.8,0,5,2.2,5,5v10c0,2.8-2.2,5-5,5h-10c-2.8,0-5-2.2-5-5v-10
		C796.2,729.9,798.4,727.6,801.2,727.6z"/>
</g>
</svg>
